<svg width="301" height="37" viewBox="0 0 301 37" fill="none" xmlns="http://www.w3.org/2000/svg">
<circle cx="145" cy="35" r="2" transform="rotate(-180 145 35)" fill="#FA87BA"/>
<circle cx="112" cy="35" r="2" transform="rotate(-180 112 35)" fill="#FA87BA"/>
<circle cx="145" cy="13" r="2" transform="rotate(-180 145 13)" fill="#FA87BA"/>
<circle cx="112" cy="13" r="2" transform="rotate(-180 112 13)" fill="#FA87BA"/>
<circle cx="134" cy="35" r="2" transform="rotate(-180 134 35)" fill="#FA87BA"/>
<circle cx="101" cy="35" r="2" transform="rotate(-180 101 35)" fill="#FA87BA"/>
<circle cx="134" cy="13" r="2" transform="rotate(-180 134 13)" fill="#FA87BA"/>
<circle cx="101" cy="13" r="2" transform="rotate(-180 101 13)" fill="#FA87BA"/>
<circle cx="123" cy="35" r="2" transform="rotate(-180 123 35)" fill="#FA87BA"/>
<circle cx="90" cy="35" r="2" transform="rotate(-180 90 35)" fill="#FA87BA"/>
<circle cx="123" cy="13" r="2" transform="rotate(-180 123 13)" fill="#FA87BA"/>
<circle cx="90" cy="13" r="2" transform="rotate(-180 90 13)" fill="#FA87BA"/>
<circle cx="123" cy="24" r="2" transform="rotate(-180 123 24)" fill="#FA87BA"/>
<circle cx="90" cy="24" r="2" transform="rotate(-180 90 24)" fill="#FA87BA"/>
<circle cx="123" cy="2" r="2" transform="rotate(-180 123 2)" fill="#FA87BA"/>
<circle cx="90" cy="2" r="2" transform="rotate(-180 90 2)" fill="#FA87BA"/>
<circle cx="134" cy="24" r="2" transform="rotate(-180 134 24)" fill="#FA87BA"/>
<circle cx="101" cy="24" r="2" transform="rotate(-180 101 24)" fill="#FA87BA"/>
<circle cx="134" cy="2" r="2" transform="rotate(-180 134 2)" fill="#FA87BA"/>
<circle cx="101" cy="2" r="2" transform="rotate(-180 101 2)" fill="#FA87BA"/>
<circle cx="145" cy="24" r="2" transform="rotate(-180 145 24)" fill="#FA87BA"/>
<circle cx="112" cy="24" r="2" transform="rotate(-180 112 24)" fill="#FA87BA"/>
<circle cx="145" cy="2" r="2" transform="rotate(-180 145 2)" fill="#FA87BA"/>
<circle cx="112" cy="2" r="2" transform="rotate(-180 112 2)" fill="#FA87BA"/>
<circle cx="299" cy="35" r="2" transform="rotate(-180 299 35)" fill="#FA87BA"/>
<circle cx="299" cy="13" r="2" transform="rotate(-180 299 13)" fill="#FA87BA"/>
<circle cx="288" cy="35" r="2" transform="rotate(-180 288 35)" fill="#FA87BA"/>
<circle cx="288" cy="13" r="2" transform="rotate(-180 288 13)" fill="#FA87BA"/>
<circle cx="288" cy="24" r="2" transform="rotate(-180 288 24)" fill="#FA87BA"/>
<circle cx="288" cy="2" r="2" transform="rotate(-180 288 2)" fill="#FA87BA"/>
<circle cx="299" cy="24" r="2" transform="rotate(-180 299 24)" fill="#FA87BA"/>
<circle cx="299" cy="2" r="2" transform="rotate(-180 299 2)" fill="#FA87BA"/>
<circle cx="79" cy="35" r="2" transform="rotate(-180 79 35)" fill="#FA87BA"/>
<circle cx="46" cy="35" r="2" transform="rotate(-180 46 35)" fill="#FA87BA"/>
<circle cx="79" cy="13" r="2" transform="rotate(-180 79 13)" fill="#FA87BA"/>
<circle cx="46" cy="13" r="2" transform="rotate(-180 46 13)" fill="#FA87BA"/>
<circle cx="68" cy="35" r="2" transform="rotate(-180 68 35)" fill="#FA87BA"/>
<circle cx="35" cy="35" r="2" transform="rotate(-180 35 35)" fill="#FA87BA"/>
<circle cx="68" cy="13" r="2" transform="rotate(-180 68 13)" fill="#FA87BA"/>
<circle cx="35" cy="13" r="2" transform="rotate(-180 35 13)" fill="#FA87BA"/>
<circle cx="57" cy="35" r="2" transform="rotate(-180 57 35)" fill="#FA87BA"/>
<circle cx="24" cy="35" r="2" transform="rotate(-180 24 35)" fill="#FA87BA"/>
<circle cx="57" cy="13" r="2" transform="rotate(-180 57 13)" fill="#FA87BA"/>
<circle cx="24" cy="13" r="2" transform="rotate(-180 24 13)" fill="#FA87BA"/>
<circle cx="57" cy="24" r="2" transform="rotate(-180 57 24)" fill="#FA87BA"/>
<circle cx="24" cy="24" r="2" transform="rotate(-180 24 24)" fill="#FA87BA"/>
<circle cx="57" cy="2" r="2" transform="rotate(-180 57 2)" fill="#FA87BA"/>
<circle cx="24" cy="2" r="2" transform="rotate(-180 24 2)" fill="#FA87BA"/>
<circle cx="68" cy="24" r="2" transform="rotate(-180 68 24)" fill="#FA87BA"/>
<circle cx="35" cy="24" r="2" transform="rotate(-180 35 24)" fill="#FA87BA"/>
<circle cx="68" cy="2" r="2" transform="rotate(-180 68 2)" fill="#FA87BA"/>
<circle cx="35" cy="2" r="2" transform="rotate(-180 35 2)" fill="#FA87BA"/>
<circle cx="79" cy="24" r="2" transform="rotate(-180 79 24)" fill="#FA87BA"/>
<circle cx="46" cy="24" r="2" transform="rotate(-180 46 24)" fill="#FA87BA"/>
<circle cx="79" cy="2" r="2" transform="rotate(-180 79 2)" fill="#FA87BA"/>
<circle cx="46" cy="2" r="2" transform="rotate(-180 46 2)" fill="#FA87BA"/>
<circle cx="277" cy="35" r="2" transform="rotate(-180 277 35)" fill="#FA87BA"/>
<circle cx="244" cy="35" r="2" transform="rotate(-180 244 35)" fill="#FA87BA"/>
<circle cx="277" cy="13" r="2" transform="rotate(-180 277 13)" fill="#FA87BA"/>
<circle cx="244" cy="13" r="2" transform="rotate(-180 244 13)" fill="#FA87BA"/>
<circle cx="266" cy="35" r="2" transform="rotate(-180 266 35)" fill="#FA87BA"/>
<circle cx="233" cy="35" r="2" transform="rotate(-180 233 35)" fill="#FA87BA"/>
<circle cx="266" cy="13" r="2" transform="rotate(-180 266 13)" fill="#FA87BA"/>
<circle cx="233" cy="13" r="2" transform="rotate(-180 233 13)" fill="#FA87BA"/>
<circle cx="255" cy="35" r="2" transform="rotate(-180 255 35)" fill="#FA87BA"/>
<circle cx="222" cy="35" r="2" transform="rotate(-180 222 35)" fill="#FA87BA"/>
<circle cx="255" cy="13" r="2" transform="rotate(-180 255 13)" fill="#FA87BA"/>
<circle cx="222" cy="13" r="2" transform="rotate(-180 222 13)" fill="#FA87BA"/>
<circle cx="255" cy="24" r="2" transform="rotate(-180 255 24)" fill="#FA87BA"/>
<circle cx="222" cy="24" r="2" transform="rotate(-180 222 24)" fill="#FA87BA"/>
<circle cx="255" cy="2" r="2" transform="rotate(-180 255 2)" fill="#FA87BA"/>
<circle cx="222" cy="2" r="2" transform="rotate(-180 222 2)" fill="#FA87BA"/>
<circle cx="266" cy="24" r="2" transform="rotate(-180 266 24)" fill="#FA87BA"/>
<circle cx="233" cy="24" r="2" transform="rotate(-180 233 24)" fill="#FA87BA"/>
<circle cx="266" cy="2" r="2" transform="rotate(-180 266 2)" fill="#FA87BA"/>
<circle cx="233" cy="2" r="2" transform="rotate(-180 233 2)" fill="#FA87BA"/>
<circle cx="277" cy="24" r="2" transform="rotate(-180 277 24)" fill="#FA87BA"/>
<circle cx="244" cy="24" r="2" transform="rotate(-180 244 24)" fill="#FA87BA"/>
<circle cx="277" cy="2" r="2" transform="rotate(-180 277 2)" fill="#FA87BA"/>
<circle cx="244" cy="2" r="2" transform="rotate(-180 244 2)" fill="#FA87BA"/>
<circle cx="13" cy="35" r="2" transform="rotate(-180 13 35)" fill="#FA87BA"/>
<circle cx="13" cy="13" r="2" transform="rotate(-180 13 13)" fill="#FA87BA"/>
<circle cx="2" cy="35" r="2" transform="rotate(-180 2 35)" fill="#FA87BA"/>
<circle cx="2" cy="13" r="2" transform="rotate(-180 2 13)" fill="#FA87BA"/>
<circle cx="2" cy="24" r="2" transform="rotate(-180 2 24)" fill="#FA87BA"/>
<circle cx="2" cy="2" r="2" transform="rotate(-180 2 2)" fill="#FA87BA"/>
<circle cx="13" cy="24" r="2" transform="rotate(-180 13 24)" fill="#FA87BA"/>
<circle cx="13" cy="2" r="2" transform="rotate(-180 13 2)" fill="#FA87BA"/>
<circle cx="211" cy="35" r="2" transform="rotate(-180 211 35)" fill="#FA87BA"/>
<circle cx="178" cy="35" r="2" transform="rotate(-180 178 35)" fill="#FA87BA"/>
<circle cx="211" cy="13" r="2" transform="rotate(-180 211 13)" fill="#FA87BA"/>
<circle cx="178" cy="13" r="2" transform="rotate(-180 178 13)" fill="#FA87BA"/>
<circle cx="200" cy="35" r="2" transform="rotate(-180 200 35)" fill="#FA87BA"/>
<circle cx="167" cy="35" r="2" transform="rotate(-180 167 35)" fill="#FA87BA"/>
<circle cx="200" cy="13" r="2" transform="rotate(-180 200 13)" fill="#FA87BA"/>
<circle cx="167" cy="13" r="2" transform="rotate(-180 167 13)" fill="#FA87BA"/>
<circle cx="189" cy="35" r="2" transform="rotate(-180 189 35)" fill="#FA87BA"/>
<circle cx="156" cy="35" r="2" transform="rotate(-180 156 35)" fill="#FA87BA"/>
<circle cx="189" cy="13" r="2" transform="rotate(-180 189 13)" fill="#FA87BA"/>
<circle cx="156" cy="13" r="2" transform="rotate(-180 156 13)" fill="#FA87BA"/>
<circle cx="189" cy="24" r="2" transform="rotate(-180 189 24)" fill="#FA87BA"/>
<circle cx="156" cy="24" r="2" transform="rotate(-180 156 24)" fill="#FA87BA"/>
<circle cx="189" cy="2" r="2" transform="rotate(-180 189 2)" fill="#FA87BA"/>
<circle cx="156" cy="2" r="2" transform="rotate(-180 156 2)" fill="#FA87BA"/>
<circle cx="200" cy="24" r="2" transform="rotate(-180 200 24)" fill="#FA87BA"/>
<circle cx="167" cy="24" r="2" transform="rotate(-180 167 24)" fill="#FA87BA"/>
<circle cx="200" cy="2" r="2" transform="rotate(-180 200 2)" fill="#FA87BA"/>
<circle cx="167" cy="2" r="2" transform="rotate(-180 167 2)" fill="#FA87BA"/>
<circle cx="211" cy="24" r="2" transform="rotate(-180 211 24)" fill="#FA87BA"/>
<circle cx="178" cy="24" r="2" transform="rotate(-180 178 24)" fill="#FA87BA"/>
<circle cx="211" cy="2" r="2" transform="rotate(-180 211 2)" fill="#FA87BA"/>
<circle cx="178" cy="2" r="2" transform="rotate(-180 178 2)" fill="#FA87BA"/>
</svg>
