<svg width="197" height="187" viewBox="0 0 197 187" fill="none" xmlns="http://www.w3.org/2000/svg">
<circle cx="65.1166" cy="116.23" r="2" transform="rotate(68.9911 65.1166 116.23)" fill="#CDCDFE"/>
<circle cx="118.022" cy="131.261" r="2" transform="rotate(68.9911 118.022 131.261)" fill="#CDCDFE"/>
<circle cx="76.9467" cy="147.036" r="2" transform="rotate(68.9911 76.9467 147.036)" fill="#CDCDFE"/>
<circle cx="44.5795" cy="124.117" r="2" transform="rotate(68.9911 44.5795 124.117)" fill="#FD53A3"/>
<circle cx="97.4848" cy="139.149" r="2" transform="rotate(68.9911 97.4848 139.149)" fill="#CDCDFE"/>
<circle cx="56.4095" cy="154.923" r="2" transform="rotate(68.9911 56.4095 154.923)" fill="#FD53A3"/>
<circle cx="110.135" cy="110.724" r="2" transform="rotate(68.9911 110.135 110.724)" fill="#CDCDFE"/>
<circle cx="69.0599" cy="126.498" r="2" transform="rotate(68.9911 69.0599 126.498)" fill="#CDCDFE"/>
<circle cx="121.966" cy="141.53" r="2" transform="rotate(68.9911 121.966 141.53)" fill="#FD53A3"/>
<circle cx="80.891" cy="157.305" r="2" transform="rotate(68.9911 80.891 157.305)" fill="#FD53A3"/>
<circle cx="89.598" cy="118.611" r="2" transform="rotate(68.9911 89.598 118.611)" fill="#CDCDFE"/>
<circle cx="48.5219" cy="134.386" r="2" transform="rotate(68.9911 48.5219 134.386)" fill="#FD53A3"/>
<circle cx="101.428" cy="149.418" r="2" transform="rotate(68.9911 101.428 149.418)" fill="#FD53A3"/>
<circle cx="60.3539" cy="165.192" r="2" transform="rotate(68.9911 60.3539 165.192)" fill="#FD53A3"/>
<circle cx="114.078" cy="120.993" r="2" transform="rotate(68.9911 114.078 120.993)" fill="#CDCDFE"/>
<circle cx="73.0035" cy="136.767" r="2" transform="rotate(68.9911 73.0035 136.767)" fill="#CDCDFE"/>
<circle cx="125.91" cy="151.799" r="2" transform="rotate(68.9911 125.91 151.799)" fill="#FD53A3"/>
<circle cx="84.8344" cy="167.573" r="2" transform="rotate(68.9911 84.8344 167.573)" fill="#FD53A3"/>
<circle cx="93.5413" cy="128.88" r="2" transform="rotate(68.9911 93.5413 128.88)" fill="#CDCDFE"/>
<circle cx="52.4662" cy="144.654" r="2" transform="rotate(68.9911 52.4662 144.654)" fill="#FD53A3"/>
<circle cx="105.372" cy="159.686" r="2" transform="rotate(68.9911 105.372 159.686)" fill="#FD53A3"/>
<circle cx="64.2972" cy="175.461" r="2" transform="rotate(68.9911 64.2972 175.461)" fill="#FD53A3"/>
<circle cx="103.81" cy="124.936" r="2" transform="rotate(68.9911 103.81 124.936)" fill="#CDCDFE"/>
<circle cx="62.7349" cy="140.711" r="2" transform="rotate(68.9911 62.7349 140.711)" fill="#CDCDFE"/>
<circle cx="115.641" cy="155.742" r="2" transform="rotate(68.9911 115.641 155.742)" fill="#FD53A3"/>
<circle cx="74.5657" cy="171.517" r="2" transform="rotate(68.9911 74.5657 171.517)" fill="#FD53A3"/>
<circle cx="83.2719" cy="132.823" r="2" transform="rotate(68.9911 83.2719 132.823)" fill="#CDCDFE"/>
<circle cx="42.1967" cy="148.598" r="2" transform="rotate(68.9911 42.1967 148.598)" fill="#FD53A3"/>
<circle cx="95.1039" cy="163.63" r="2" transform="rotate(68.9911 95.1039 163.63)" fill="#FD53A3"/>
<circle cx="54.0282" cy="179.404" r="2" transform="rotate(68.9911 54.0282 179.404)" fill="#FD53A3"/>
<circle cx="99.8666" cy="114.668" r="2" transform="rotate(68.9911 99.8666 114.668)" fill="#CDCDFE"/>
<circle cx="58.7912" cy="130.442" r="2" transform="rotate(68.9911 58.7912 130.442)" fill="#CDCDFE"/>
<circle cx="111.697" cy="145.474" r="2" transform="rotate(68.9911 111.697 145.474)" fill="#FD53A3"/>
<circle cx="70.6224" cy="161.249" r="2" transform="rotate(68.9911 70.6224 161.249)" fill="#FD53A3"/>
<circle cx="79.3285" cy="122.555" r="2" transform="rotate(68.9911 79.3285 122.555)" fill="#CDCDFE"/>
<circle cx="38.2533" cy="138.33" r="2" transform="rotate(68.9911 38.2533 138.33)" fill="#FD53A3"/>
<circle cx="91.1595" cy="153.361" r="2" transform="rotate(68.9911 91.1595 153.361)" fill="#FD53A3"/>
<circle cx="50.0844" cy="169.136" r="2" transform="rotate(68.9911 50.0844 169.136)" fill="#FD53A3"/>
<circle cx="54.848" cy="120.173" r="2" transform="rotate(68.9911 54.848 120.173)" fill="#CDCDFE"/>
<circle cx="107.753" cy="135.205" r="2" transform="rotate(68.9911 107.753 135.205)" fill="#CDCDFE"/>
<circle cx="66.6782" cy="150.98" r="2" transform="rotate(68.9911 66.6782 150.98)" fill="#CDCDFE"/>
<circle cx="75.3851" cy="112.286" r="2" transform="rotate(68.9911 75.3851 112.286)" fill="#CDCDFE"/>
<circle cx="34.3099" cy="128.061" r="2" transform="rotate(68.9911 34.3099 128.061)" fill="#FD53A3"/>
<circle cx="87.2162" cy="143.092" r="2" transform="rotate(68.9911 87.2162 143.092)" fill="#CDCDFE"/>
<circle cx="46.141" cy="158.867" r="2" transform="rotate(68.9911 46.141 158.867)" fill="#FD53A3"/>
<circle cx="126.089" cy="116.257" r="2" transform="rotate(-21.8846 126.089 116.257)" fill="#CDCDFE"/>
<circle cx="156.711" cy="103.957" r="2" transform="rotate(-21.8846 156.711 103.957)" fill="#CDCDFE"/>
<circle cx="134.289" cy="136.672" r="2" transform="rotate(-21.8846 134.289 136.672)" fill="#FD53A3"/>
<circle cx="164.911" cy="124.372" r="2" transform="rotate(-21.8846 164.911 124.372)" fill="#FD53A3"/>
<circle cx="136.296" cy="112.157" r="2" transform="rotate(-21.8846 136.296 112.157)" fill="#CDCDFE"/>
<circle cx="166.918" cy="99.857" r="2" transform="rotate(-21.8846 166.918 99.857)" fill="#CDCDFE"/>
<circle cx="144.496" cy="132.572" r="2" transform="rotate(-21.8846 144.496 132.572)" fill="#FD53A3"/>
<circle cx="175.119" cy="120.272" r="2" transform="rotate(-21.8846 175.119 120.272)" fill="#FD53A3"/>
<circle cx="146.504" cy="108.057" r="2" transform="rotate(-21.8846 146.504 108.057)" fill="#CDCDFE"/>
<circle cx="177.126" cy="95.7569" r="2" transform="rotate(-21.8846 177.126 95.7569)" fill="#CDCDFE"/>
<circle cx="154.704" cy="128.472" r="2" transform="rotate(-21.8846 154.704 128.472)" fill="#FD53A3"/>
<circle cx="185.325" cy="116.171" r="2" transform="rotate(-21.8846 185.325 116.171)" fill="#FD53A3"/>
<circle cx="150.604" cy="118.265" r="2" transform="rotate(-21.8846 150.604 118.265)" fill="#CDCDFE"/>
<circle cx="181.225" cy="105.964" r="2" transform="rotate(-21.8846 181.225 105.964)" fill="#CDCDFE"/>
<circle cx="142.403" cy="97.8501" r="2" transform="rotate(-21.8846 142.403 97.8501)" fill="#CDCDFE"/>
<circle cx="158.803" cy="138.679" r="2" transform="rotate(-21.8846 158.803 138.679)" fill="#FD53A3"/>
<circle cx="173.025" cy="85.5494" r="2" transform="rotate(-21.8846 173.025 85.5494)" fill="#CDCDFE"/>
<circle cx="189.426" cy="126.379" r="2" transform="rotate(-21.8846 189.426 126.379)" fill="#FD53A3"/>
<circle cx="140.396" cy="122.364" r="2" transform="rotate(-21.8846 140.396 122.364)" fill="#CDCDFE"/>
<circle cx="171.018" cy="110.064" r="2" transform="rotate(-21.8846 171.018 110.064)" fill="#CDCDFE"/>
<circle cx="132.196" cy="101.95" r="2" transform="rotate(-21.8846 132.196 101.95)" fill="#CDCDFE"/>
<circle cx="148.597" cy="142.779" r="2" transform="rotate(-21.8846 148.597 142.779)" fill="#FD53A3"/>
<circle cx="162.817" cy="89.6495" r="2" transform="rotate(-21.8846 162.817 89.6495)" fill="#CDCDFE"/>
<circle cx="179.219" cy="130.479" r="2" transform="rotate(-21.8846 179.219 130.479)" fill="#FD53A3"/>
<circle cx="130.189" cy="126.465" r="2" transform="rotate(-21.8846 130.189 126.465)" fill="#CDCDFE"/>
<circle cx="160.81" cy="114.165" r="2" transform="rotate(-21.8846 160.81 114.165)" fill="#CDCDFE"/>
<circle cx="121.988" cy="106.05" r="2" transform="rotate(-21.8846 121.988 106.05)" fill="#CDCDFE"/>
<circle cx="138.389" cy="146.879" r="2" transform="rotate(-21.8846 138.389 146.879)" fill="#FD53A3"/>
<circle cx="152.611" cy="93.7496" r="2" transform="rotate(-21.8846 152.611 93.7496)" fill="#CDCDFE"/>
<circle cx="169.011" cy="134.579" r="2" transform="rotate(-21.8846 169.011 134.579)" fill="#FD53A3"/>
<circle cx="42.6908" cy="54.4386" r="2" transform="rotate(68.9911 42.6908 54.4386)" fill="#CDCDFE"/>
<circle cx="54.5228" cy="85.2447" r="2" transform="rotate(68.9911 54.5228 85.2447)" fill="#CDCDFE"/>
<circle cx="22.1537" cy="62.3258" r="2" transform="rotate(68.9911 22.1537 62.3258)" fill="#FD53A3"/>
<circle cx="33.9847" cy="93.1319" r="2" transform="rotate(68.9911 33.9847 93.1319)" fill="#FD53A3"/>
<circle cx="46.6351" cy="64.7071" r="2" transform="rotate(68.9911 46.6351 64.7071)" fill="#CDCDFE"/>
<circle cx="58.4661" cy="95.5133" r="2" transform="rotate(68.9911 58.4661 95.5133)" fill="#CDCDFE"/>
<circle cx="26.098" cy="72.5948" r="2" transform="rotate(68.9911 26.098 72.5948)" fill="#FD53A3"/>
<circle cx="37.9281" cy="103.401" r="2" transform="rotate(68.9911 37.9281 103.401)" fill="#FD53A3"/>
<circle cx="50.5785" cy="74.9757" r="2" transform="rotate(68.9911 50.5785 74.9757)" fill="#CDCDFE"/>
<circle cx="62.4095" cy="105.783" r="2" transform="rotate(68.9911 62.4095 105.783)" fill="#CDCDFE"/>
<circle cx="30.0414" cy="82.8629" r="2" transform="rotate(68.9911 30.0414 82.8629)" fill="#FD53A3"/>
<circle cx="41.8724" cy="113.67" r="2" transform="rotate(68.9911 41.8724 113.67)" fill="#FD53A3"/>
<circle cx="40.3098" cy="78.9195" r="2" transform="rotate(68.9911 40.3098 78.9195)" fill="#CDCDFE"/>
<circle cx="52.1411" cy="109.726" r="2" transform="rotate(68.9911 52.1411 109.726)" fill="#CDCDFE"/>
<circle cx="60.847" cy="71.0323" r="2" transform="rotate(68.9911 60.847 71.0323)" fill="#CDCDFE"/>
<circle cx="19.772" cy="86.8067" r="2" transform="rotate(68.9911 19.772 86.8067)" fill="#FD53A3"/>
<circle cx="72.6783" cy="101.838" r="2" transform="rotate(68.9911 72.6783 101.838)" fill="#CDCDFE"/>
<circle cx="31.6028" cy="117.613" r="2" transform="rotate(68.9911 31.6028 117.613)" fill="#FD53A3"/>
<circle cx="36.3666" cy="68.651" r="2" transform="rotate(68.9911 36.3666 68.651)" fill="#CDCDFE"/>
<circle cx="48.1974" cy="99.4571" r="2" transform="rotate(68.9911 48.1974 99.4571)" fill="#CDCDFE"/>
<circle cx="56.9037" cy="60.7638" r="2" transform="rotate(68.9911 56.9037 60.7638)" fill="#CDCDFE"/>
<circle cx="15.8284" cy="76.5382" r="2" transform="rotate(68.9911 15.8284 76.5382)" fill="#FD53A3"/>
<circle cx="68.7347" cy="91.5699" r="2" transform="rotate(68.9911 68.7347 91.5699)" fill="#CDCDFE"/>
<circle cx="27.6597" cy="107.344" r="2" transform="rotate(68.9911 27.6597 107.344)" fill="#FD53A3"/>
<circle cx="32.423" cy="58.3819" r="2" transform="rotate(68.9911 32.423 58.3819)" fill="#CDCDFE"/>
<circle cx="44.2534" cy="89.1886" r="2" transform="rotate(68.9911 44.2534 89.1886)" fill="#CDCDFE"/>
<circle cx="52.9603" cy="50.4942" r="2" transform="rotate(68.9911 52.9603 50.4942)" fill="#CDCDFE"/>
<circle cx="11.8851" cy="66.2691" r="2" transform="rotate(68.9911 11.8851 66.2691)" fill="#FD53A3"/>
<circle cx="64.7904" cy="81.3009" r="2" transform="rotate(68.9911 64.7904 81.3009)" fill="#CDCDFE"/>
<circle cx="23.7161" cy="97.0758" r="2" transform="rotate(68.9911 23.7161 97.0758)" fill="#FD53A3"/>
<circle cx="34.8383" cy="34.4669" r="2" transform="rotate(68.9911 34.8383 34.4669)" fill="#CDCDFE"/>
<circle cx="14.3011" cy="42.3536" r="2" transform="rotate(68.9911 14.3011 42.3536)" fill="#FD53A3"/>
<circle cx="38.7818" cy="44.7354" r="2" transform="rotate(68.9911 38.7818 44.7354)" fill="#CDCDFE"/>
<circle cx="18.2446" cy="52.6227" r="2" transform="rotate(68.9911 18.2446 52.6227)" fill="#FD53A3"/>
<circle cx="28.5131" cy="48.6788" r="2" transform="rotate(68.9911 28.5131 48.6788)" fill="#CDCDFE"/>
<circle cx="49.0507" cy="40.7916" r="2" transform="rotate(68.9911 49.0507 40.7916)" fill="#CDCDFE"/>
<circle cx="7.97498" cy="56.566" r="2" transform="rotate(68.9911 7.97498 56.566)" fill="#FD53A3"/>
<circle cx="24.5697" cy="38.4098" r="2" transform="rotate(68.9911 24.5697 38.4098)" fill="#CDCDFE"/>
<circle cx="45.1068" cy="30.523" r="2" transform="rotate(68.9911 45.1068 30.523)" fill="#CDCDFE"/>
<circle cx="4.0318" cy="46.2975" r="2" transform="rotate(68.9911 4.0318 46.2975)" fill="#FD53A3"/>
</svg>
