<svg width="411" height="92" viewBox="0 0 411 92" fill="none" xmlns="http://www.w3.org/2000/svg">
<circle cx="2" cy="46" r="2" fill="#F0F0FF" fill-opacity="0.44"/>
<circle cx="35" cy="46" r="2" fill="#F0F0FF" fill-opacity="0.44"/>
<circle cx="2" cy="68" r="2" fill="#F0F0FF" fill-opacity="0.44"/>
<circle cx="35" cy="68" r="2" fill="#F0F0FF" fill-opacity="0.44"/>
<circle cx="13" cy="46" r="2" fill="#F0F0FF" fill-opacity="0.44"/>
<circle cx="46" cy="46" r="2" fill="#F0F0FF" fill-opacity="0.44"/>
<circle cx="13" cy="68" r="2" fill="#F0F0FF" fill-opacity="0.44"/>
<circle cx="46" cy="68" r="2" fill="#F0F0FF" fill-opacity="0.44"/>
<circle cx="24" cy="46" r="2" fill="#F0F0FF" fill-opacity="0.44"/>
<circle cx="57" cy="46" r="2" fill="#F0F0FF" fill-opacity="0.44"/>
<circle cx="24" cy="68" r="2" fill="#F0F0FF" fill-opacity="0.44"/>
<circle cx="57" cy="68" r="2" fill="#F0F0FF" fill-opacity="0.44"/>
<circle cx="24" cy="57" r="2" fill="#F0F0FF" fill-opacity="0.44"/>
<circle cx="57" cy="57" r="2" fill="#F0F0FF" fill-opacity="0.44"/>
<circle cx="24" cy="79" r="2" fill="#F0F0FF" fill-opacity="0.44"/>
<circle cx="24" cy="88" r="2" fill="#F0F0FF" fill-opacity="0.44"/>
<circle cx="57" cy="79" r="2" fill="#F0F0FF" fill-opacity="0.44"/>
<circle cx="57" cy="88" r="2" fill="#F0F0FF" fill-opacity="0.44"/>
<circle cx="13" cy="57" r="2" fill="#F0F0FF" fill-opacity="0.44"/>
<circle cx="46" cy="57" r="2" fill="#F0F0FF" fill-opacity="0.44"/>
<circle cx="13" cy="79" r="2" fill="#F0F0FF" fill-opacity="0.44"/>
<circle cx="13" cy="88" r="2" fill="#F0F0FF" fill-opacity="0.44"/>
<circle cx="46" cy="79" r="2" fill="#F0F0FF" fill-opacity="0.44"/>
<circle cx="46" cy="88" r="2" fill="#F0F0FF" fill-opacity="0.44"/>
<circle cx="2" cy="57" r="2" fill="#F0F0FF" fill-opacity="0.44"/>
<circle cx="35" cy="57" r="2" fill="#F0F0FF" fill-opacity="0.44"/>
<circle cx="2" cy="79" r="2" fill="#F0F0FF" fill-opacity="0.44"/>
<circle cx="2" cy="88" r="2" fill="#F0F0FF" fill-opacity="0.44"/>
<circle cx="35" cy="79" r="2" fill="#F0F0FF" fill-opacity="0.44"/>
<circle cx="35" cy="88" r="2" fill="#F0F0FF" fill-opacity="0.44"/>
<circle cx="2" cy="2" r="2" fill="#F0F0FF" fill-opacity="0.44"/>
<circle cx="35" cy="2" r="2" fill="#F0F0FF" fill-opacity="0.44"/>
<circle cx="2" cy="24" r="2" fill="#F0F0FF" fill-opacity="0.44"/>
<circle cx="35" cy="24" r="2" fill="#F0F0FF" fill-opacity="0.44"/>
<circle cx="13" cy="2" r="2" fill="#F0F0FF" fill-opacity="0.44"/>
<circle cx="46" cy="2" r="2" fill="#F0F0FF" fill-opacity="0.44"/>
<circle cx="13" cy="24" r="2" fill="#F0F0FF" fill-opacity="0.44"/>
<circle cx="46" cy="24" r="2" fill="#F0F0FF" fill-opacity="0.44"/>
<circle cx="24" cy="2" r="2" fill="#F0F0FF" fill-opacity="0.44"/>
<circle cx="57" cy="2" r="2" fill="#F0F0FF" fill-opacity="0.44"/>
<circle cx="24" cy="24" r="2" fill="#F0F0FF" fill-opacity="0.44"/>
<circle cx="57" cy="24" r="2" fill="#F0F0FF" fill-opacity="0.44"/>
<circle cx="24" cy="13" r="2" fill="#F0F0FF" fill-opacity="0.44"/>
<circle cx="57" cy="13" r="2" fill="#F0F0FF" fill-opacity="0.44"/>
<circle cx="24" cy="35" r="2" fill="#F0F0FF" fill-opacity="0.44"/>
<circle cx="57" cy="35" r="2" fill="#F0F0FF" fill-opacity="0.44"/>
<circle cx="13" cy="13" r="2" fill="#F0F0FF" fill-opacity="0.44"/>
<circle cx="46" cy="13" r="2" fill="#F0F0FF" fill-opacity="0.44"/>
<circle cx="13" cy="35" r="2" fill="#F0F0FF" fill-opacity="0.44"/>
<circle cx="46" cy="35" r="2" fill="#F0F0FF" fill-opacity="0.44"/>
<circle cx="2" cy="13" r="2" fill="#F0F0FF" fill-opacity="0.44"/>
<circle cx="35" cy="13" r="2" fill="#F0F0FF" fill-opacity="0.44"/>
<circle cx="2" cy="35" r="2" fill="#F0F0FF" fill-opacity="0.44"/>
<circle cx="35" cy="35" r="2" fill="#F0F0FF" fill-opacity="0.44"/>
<circle cx="266" cy="46" r="2" fill="#F0F0FF" fill-opacity="0.44"/>
<circle cx="266" cy="90" r="2" fill="#F0F0FF" fill-opacity="0.44"/>
<circle cx="299" cy="46" r="2" fill="#F0F0FF" fill-opacity="0.44"/>
<circle cx="299" cy="90" r="2" fill="#F0F0FF" fill-opacity="0.44"/>
<circle cx="266" cy="68" r="2" fill="#F0F0FF" fill-opacity="0.44"/>
<circle cx="299" cy="68" r="2" fill="#F0F0FF" fill-opacity="0.44"/>
<circle cx="277" cy="46" r="2" fill="#F0F0FF" fill-opacity="0.44"/>
<circle cx="277" cy="90" r="2" fill="#F0F0FF" fill-opacity="0.44"/>
<circle cx="310" cy="46" r="2" fill="#F0F0FF" fill-opacity="0.44"/>
<circle cx="310" cy="90" r="2" fill="#F0F0FF" fill-opacity="0.44"/>
<circle cx="277" cy="68" r="2" fill="#F0F0FF" fill-opacity="0.44"/>
<circle cx="310" cy="68" r="2" fill="#F0F0FF" fill-opacity="0.44"/>
<circle cx="288" cy="46" r="2" fill="#F0F0FF" fill-opacity="0.44"/>
<circle cx="288" cy="90" r="2" fill="#F0F0FF" fill-opacity="0.44"/>
<circle cx="321" cy="46" r="2" fill="#F0F0FF" fill-opacity="0.44"/>
<circle cx="321" cy="90" r="2" fill="#F0F0FF" fill-opacity="0.44"/>
<circle cx="288" cy="68" r="2" fill="#F0F0FF" fill-opacity="0.44"/>
<circle cx="321" cy="68" r="2" fill="#F0F0FF" fill-opacity="0.44"/>
<circle cx="288" cy="57" r="2" fill="#F0F0FF" fill-opacity="0.44"/>
<circle cx="321" cy="57" r="2" fill="#F0F0FF" fill-opacity="0.44"/>
<circle cx="288" cy="79" r="2" fill="#F0F0FF" fill-opacity="0.44"/>
<circle cx="321" cy="79" r="2" fill="#F0F0FF" fill-opacity="0.44"/>
<circle cx="277" cy="57" r="2" fill="#F0F0FF" fill-opacity="0.44"/>
<circle cx="310" cy="57" r="2" fill="#F0F0FF" fill-opacity="0.44"/>
<circle cx="277" cy="79" r="2" fill="#F0F0FF" fill-opacity="0.44"/>
<circle cx="310" cy="79" r="2" fill="#F0F0FF" fill-opacity="0.44"/>
<circle cx="266" cy="57" r="2" fill="#F0F0FF" fill-opacity="0.44"/>
<circle cx="299" cy="57" r="2" fill="#F0F0FF" fill-opacity="0.44"/>
<circle cx="266" cy="79" r="2" fill="#F0F0FF" fill-opacity="0.44"/>
<circle cx="299" cy="79" r="2" fill="#F0F0FF" fill-opacity="0.44"/>
<circle cx="266" cy="2" r="2" fill="#F0F0FF" fill-opacity="0.44"/>
<circle cx="299" cy="2" r="2" fill="#F0F0FF" fill-opacity="0.44"/>
<circle cx="266" cy="24" r="2" fill="#F0F0FF" fill-opacity="0.44"/>
<circle cx="299" cy="24" r="2" fill="#F0F0FF" fill-opacity="0.44"/>
<circle cx="277" cy="2" r="2" fill="#F0F0FF" fill-opacity="0.44"/>
<circle cx="310" cy="2" r="2" fill="#F0F0FF" fill-opacity="0.44"/>
<circle cx="277" cy="24" r="2" fill="#F0F0FF" fill-opacity="0.44"/>
<circle cx="310" cy="24" r="2" fill="#F0F0FF" fill-opacity="0.44"/>
<circle cx="288" cy="2" r="2" fill="#F0F0FF" fill-opacity="0.44"/>
<circle cx="321" cy="2" r="2" fill="#F0F0FF" fill-opacity="0.44"/>
<circle cx="288" cy="24" r="2" fill="#F0F0FF" fill-opacity="0.44"/>
<circle cx="321" cy="24" r="2" fill="#F0F0FF" fill-opacity="0.44"/>
<circle cx="288" cy="13" r="2" fill="#F0F0FF" fill-opacity="0.44"/>
<circle cx="321" cy="13" r="2" fill="#F0F0FF" fill-opacity="0.44"/>
<circle cx="288" cy="35" r="2" fill="#F0F0FF" fill-opacity="0.44"/>
<circle cx="321" cy="35" r="2" fill="#F0F0FF" fill-opacity="0.44"/>
<circle cx="277" cy="13" r="2" fill="#F0F0FF" fill-opacity="0.44"/>
<circle cx="310" cy="13" r="2" fill="#F0F0FF" fill-opacity="0.44"/>
<circle cx="277" cy="35" r="2" fill="#F0F0FF" fill-opacity="0.44"/>
<circle cx="310" cy="35" r="2" fill="#F0F0FF" fill-opacity="0.44"/>
<circle cx="266" cy="13" r="2" fill="#F0F0FF" fill-opacity="0.44"/>
<circle cx="299" cy="13" r="2" fill="#F0F0FF" fill-opacity="0.44"/>
<circle cx="266" cy="35" r="2" fill="#F0F0FF" fill-opacity="0.44"/>
<circle cx="299" cy="35" r="2" fill="#F0F0FF" fill-opacity="0.44"/>
<circle cx="68" cy="46" r="2" fill="#F0F0FF" fill-opacity="0.44"/>
<circle cx="101" cy="46" r="2" fill="#F0F0FF" fill-opacity="0.44"/>
<circle cx="68" cy="68" r="2" fill="#F0F0FF" fill-opacity="0.44"/>
<circle cx="101" cy="68" r="2" fill="#F0F0FF" fill-opacity="0.44"/>
<circle cx="79" cy="46" r="2" fill="#F0F0FF" fill-opacity="0.44"/>
<circle cx="112" cy="46" r="2" fill="#F0F0FF" fill-opacity="0.44"/>
<circle cx="79" cy="68" r="2" fill="#F0F0FF" fill-opacity="0.44"/>
<circle cx="112" cy="68" r="2" fill="#F0F0FF" fill-opacity="0.44"/>
<circle cx="90" cy="46" r="2" fill="#F0F0FF" fill-opacity="0.44"/>
<circle cx="123" cy="46" r="2" fill="#F0F0FF" fill-opacity="0.44"/>
<circle cx="90" cy="68" r="2" fill="#F0F0FF" fill-opacity="0.44"/>
<circle cx="123" cy="68" r="2" fill="#F0F0FF" fill-opacity="0.44"/>
<circle cx="90" cy="57" r="2" fill="#F0F0FF" fill-opacity="0.44"/>
<circle cx="123" cy="57" r="2" fill="#F0F0FF" fill-opacity="0.44"/>
<circle cx="90" cy="79" r="2" fill="#F0F0FF" fill-opacity="0.44"/>
<circle cx="90" cy="88" r="2" fill="#F0F0FF" fill-opacity="0.44"/>
<circle cx="123" cy="79" r="2" fill="#F0F0FF" fill-opacity="0.44"/>
<circle cx="123" cy="88" r="2" fill="#F0F0FF" fill-opacity="0.44"/>
<circle cx="79" cy="57" r="2" fill="#F0F0FF" fill-opacity="0.44"/>
<circle cx="112" cy="57" r="2" fill="#F0F0FF" fill-opacity="0.44"/>
<circle cx="79" cy="79" r="2" fill="#F0F0FF" fill-opacity="0.44"/>
<circle cx="79" cy="88" r="2" fill="#F0F0FF" fill-opacity="0.44"/>
<circle cx="112" cy="79" r="2" fill="#F0F0FF" fill-opacity="0.44"/>
<circle cx="112" cy="88" r="2" fill="#F0F0FF" fill-opacity="0.44"/>
<circle cx="68" cy="57" r="2" fill="#F0F0FF" fill-opacity="0.44"/>
<circle cx="101" cy="57" r="2" fill="#F0F0FF" fill-opacity="0.44"/>
<circle cx="68" cy="79" r="2" fill="#F0F0FF" fill-opacity="0.44"/>
<circle cx="68" cy="88" r="2" fill="#F0F0FF" fill-opacity="0.44"/>
<circle cx="101" cy="79" r="2" fill="#F0F0FF" fill-opacity="0.44"/>
<circle cx="101" cy="88" r="2" fill="#F0F0FF" fill-opacity="0.44"/>
<circle cx="68" cy="2" r="2" fill="#F0F0FF" fill-opacity="0.44"/>
<circle cx="101" cy="2" r="2" fill="#F0F0FF" fill-opacity="0.44"/>
<circle cx="68" cy="24" r="2" fill="#F0F0FF" fill-opacity="0.44"/>
<circle cx="101" cy="24" r="2" fill="#F0F0FF" fill-opacity="0.44"/>
<circle cx="79" cy="2" r="2" fill="#F0F0FF" fill-opacity="0.44"/>
<circle cx="112" cy="2" r="2" fill="#F0F0FF" fill-opacity="0.44"/>
<circle cx="79" cy="24" r="2" fill="#F0F0FF" fill-opacity="0.44"/>
<circle cx="112" cy="24" r="2" fill="#F0F0FF" fill-opacity="0.44"/>
<circle cx="90" cy="2" r="2" fill="#F0F0FF" fill-opacity="0.44"/>
<circle cx="123" cy="2" r="2" fill="#F0F0FF" fill-opacity="0.44"/>
<circle cx="90" cy="24" r="2" fill="#F0F0FF" fill-opacity="0.44"/>
<circle cx="123" cy="24" r="2" fill="#F0F0FF" fill-opacity="0.44"/>
<circle cx="90" cy="13" r="2" fill="#F0F0FF" fill-opacity="0.44"/>
<circle cx="123" cy="13" r="2" fill="#F0F0FF" fill-opacity="0.44"/>
<circle cx="90" cy="35" r="2" fill="#F0F0FF" fill-opacity="0.44"/>
<circle cx="123" cy="35" r="2" fill="#F0F0FF" fill-opacity="0.44"/>
<circle cx="79" cy="13" r="2" fill="#F0F0FF" fill-opacity="0.44"/>
<circle cx="112" cy="13" r="2" fill="#F0F0FF" fill-opacity="0.44"/>
<circle cx="79" cy="35" r="2" fill="#F0F0FF" fill-opacity="0.44"/>
<circle cx="112" cy="35" r="2" fill="#F0F0FF" fill-opacity="0.44"/>
<circle cx="68" cy="13" r="2" fill="#F0F0FF" fill-opacity="0.44"/>
<circle cx="101" cy="13" r="2" fill="#F0F0FF" fill-opacity="0.44"/>
<circle cx="68" cy="35" r="2" fill="#F0F0FF" fill-opacity="0.44"/>
<circle cx="101" cy="35" r="2" fill="#F0F0FF" fill-opacity="0.44"/>
<circle cx="332" cy="46" r="2" fill="#F0F0FF" fill-opacity="0.44"/>
<circle cx="332" cy="90" r="2" fill="#F0F0FF" fill-opacity="0.44"/>
<circle cx="365" cy="46" r="2" fill="#F0F0FF" fill-opacity="0.44"/>
<circle cx="365" cy="90" r="2" fill="#F0F0FF" fill-opacity="0.44"/>
<circle cx="332" cy="68" r="2" fill="#F0F0FF" fill-opacity="0.44"/>
<circle cx="365" cy="68" r="2" fill="#F0F0FF" fill-opacity="0.44"/>
<circle cx="343" cy="46" r="2" fill="#F0F0FF" fill-opacity="0.44"/>
<circle cx="343" cy="90" r="2" fill="#F0F0FF" fill-opacity="0.44"/>
<circle cx="376" cy="46" r="2" fill="#F0F0FF" fill-opacity="0.44"/>
<circle cx="376" cy="90" r="2" fill="#F0F0FF" fill-opacity="0.44"/>
<circle cx="343" cy="68" r="2" fill="#F0F0FF" fill-opacity="0.44"/>
<circle cx="376" cy="68" r="2" fill="#F0F0FF" fill-opacity="0.44"/>
<circle cx="354" cy="46" r="2" fill="#F0F0FF" fill-opacity="0.44"/>
<circle cx="354" cy="90" r="2" fill="#F0F0FF" fill-opacity="0.44"/>
<circle cx="387" cy="46" r="2" fill="#F0F0FF" fill-opacity="0.44"/>
<circle cx="387" cy="90" r="2" fill="#F0F0FF" fill-opacity="0.44"/>
<circle cx="354" cy="68" r="2" fill="#F0F0FF" fill-opacity="0.44"/>
<circle cx="387" cy="68" r="2" fill="#F0F0FF" fill-opacity="0.44"/>
<circle cx="354" cy="57" r="2" fill="#F0F0FF" fill-opacity="0.44"/>
<circle cx="387" cy="57" r="2" fill="#F0F0FF" fill-opacity="0.44"/>
<circle cx="354" cy="79" r="2" fill="#F0F0FF" fill-opacity="0.44"/>
<circle cx="387" cy="79" r="2" fill="#F0F0FF" fill-opacity="0.44"/>
<circle cx="343" cy="57" r="2" fill="#F0F0FF" fill-opacity="0.44"/>
<circle cx="376" cy="57" r="2" fill="#F0F0FF" fill-opacity="0.44"/>
<circle cx="343" cy="79" r="2" fill="#F0F0FF" fill-opacity="0.44"/>
<circle cx="376" cy="79" r="2" fill="#F0F0FF" fill-opacity="0.44"/>
<circle cx="332" cy="57" r="2" fill="#F0F0FF" fill-opacity="0.44"/>
<circle cx="365" cy="57" r="2" fill="#F0F0FF" fill-opacity="0.44"/>
<circle cx="332" cy="79" r="2" fill="#F0F0FF" fill-opacity="0.44"/>
<circle cx="365" cy="79" r="2" fill="#F0F0FF" fill-opacity="0.44"/>
<circle cx="332" cy="2" r="2" fill="#F0F0FF" fill-opacity="0.44"/>
<circle cx="365" cy="2" r="2" fill="#F0F0FF" fill-opacity="0.44"/>
<circle cx="332" cy="24" r="2" fill="#F0F0FF" fill-opacity="0.44"/>
<circle cx="365" cy="24" r="2" fill="#F0F0FF" fill-opacity="0.44"/>
<circle cx="343" cy="2" r="2" fill="#F0F0FF" fill-opacity="0.44"/>
<circle cx="376" cy="2" r="2" fill="#F0F0FF" fill-opacity="0.44"/>
<circle cx="343" cy="24" r="2" fill="#F0F0FF" fill-opacity="0.44"/>
<circle cx="376" cy="24" r="2" fill="#F0F0FF" fill-opacity="0.44"/>
<circle cx="354" cy="2" r="2" fill="#F0F0FF" fill-opacity="0.44"/>
<circle cx="387" cy="2" r="2" fill="#F0F0FF" fill-opacity="0.44"/>
<circle cx="354" cy="24" r="2" fill="#F0F0FF" fill-opacity="0.44"/>
<circle cx="387" cy="24" r="2" fill="#F0F0FF" fill-opacity="0.44"/>
<circle cx="354" cy="13" r="2" fill="#F0F0FF" fill-opacity="0.44"/>
<circle cx="387" cy="13" r="2" fill="#F0F0FF" fill-opacity="0.44"/>
<circle cx="354" cy="35" r="2" fill="#F0F0FF" fill-opacity="0.44"/>
<circle cx="387" cy="35" r="2" fill="#F0F0FF" fill-opacity="0.44"/>
<circle cx="343" cy="13" r="2" fill="#F0F0FF" fill-opacity="0.44"/>
<circle cx="376" cy="13" r="2" fill="#F0F0FF" fill-opacity="0.44"/>
<circle cx="343" cy="35" r="2" fill="#F0F0FF" fill-opacity="0.44"/>
<circle cx="376" cy="35" r="2" fill="#F0F0FF" fill-opacity="0.44"/>
<circle cx="332" cy="13" r="2" fill="#F0F0FF" fill-opacity="0.44"/>
<circle cx="365" cy="13" r="2" fill="#F0F0FF" fill-opacity="0.44"/>
<circle cx="332" cy="35" r="2" fill="#F0F0FF" fill-opacity="0.44"/>
<circle cx="365" cy="35" r="2" fill="#F0F0FF" fill-opacity="0.44"/>
<circle cx="134" cy="46" r="2" fill="#F0F0FF" fill-opacity="0.44"/>
<circle cx="167" cy="46" r="2" fill="#F0F0FF" fill-opacity="0.44"/>
<circle cx="134" cy="68" r="2" fill="#F0F0FF" fill-opacity="0.44"/>
<circle cx="167" cy="68" r="2" fill="#F0F0FF" fill-opacity="0.44"/>
<circle cx="145" cy="46" r="2" fill="#F0F0FF" fill-opacity="0.44"/>
<circle cx="178" cy="46" r="2" fill="#F0F0FF" fill-opacity="0.44"/>
<circle cx="145" cy="68" r="2" fill="#F0F0FF" fill-opacity="0.44"/>
<circle cx="178" cy="68" r="2" fill="#F0F0FF" fill-opacity="0.44"/>
<circle cx="156" cy="46" r="2" fill="#F0F0FF" fill-opacity="0.44"/>
<circle cx="189" cy="46" r="2" fill="#F0F0FF" fill-opacity="0.44"/>
<circle cx="156" cy="68" r="2" fill="#F0F0FF" fill-opacity="0.44"/>
<circle cx="189" cy="68" r="2" fill="#F0F0FF" fill-opacity="0.44"/>
<circle cx="156" cy="57" r="2" fill="#F0F0FF" fill-opacity="0.44"/>
<circle cx="189" cy="57" r="2" fill="#F0F0FF" fill-opacity="0.44"/>
<circle cx="156" cy="79" r="2" fill="#F0F0FF" fill-opacity="0.44"/>
<circle cx="156" cy="88" r="2" fill="#F0F0FF" fill-opacity="0.44"/>
<circle cx="189" cy="79" r="2" fill="#F0F0FF" fill-opacity="0.44"/>
<circle cx="189" cy="88" r="2" fill="#F0F0FF" fill-opacity="0.44"/>
<circle cx="145" cy="57" r="2" fill="#F0F0FF" fill-opacity="0.44"/>
<circle cx="178" cy="57" r="2" fill="#F0F0FF" fill-opacity="0.44"/>
<circle cx="145" cy="79" r="2" fill="#F0F0FF" fill-opacity="0.44"/>
<circle cx="145" cy="88" r="2" fill="#F0F0FF" fill-opacity="0.44"/>
<circle cx="178" cy="79" r="2" fill="#F0F0FF" fill-opacity="0.44"/>
<circle cx="178" cy="88" r="2" fill="#F0F0FF" fill-opacity="0.44"/>
<circle cx="134" cy="57" r="2" fill="#F0F0FF" fill-opacity="0.44"/>
<circle cx="167" cy="57" r="2" fill="#F0F0FF" fill-opacity="0.44"/>
<circle cx="134" cy="79" r="2" fill="#F0F0FF" fill-opacity="0.44"/>
<circle cx="134" cy="88" r="2" fill="#F0F0FF" fill-opacity="0.44"/>
<circle cx="167" cy="79" r="2" fill="#F0F0FF" fill-opacity="0.44"/>
<circle cx="167" cy="88" r="2" fill="#F0F0FF" fill-opacity="0.44"/>
<circle cx="134" cy="2" r="2" fill="#F0F0FF" fill-opacity="0.44"/>
<circle cx="167" cy="2" r="2" fill="#F0F0FF" fill-opacity="0.44"/>
<circle cx="134" cy="24" r="2" fill="#F0F0FF" fill-opacity="0.44"/>
<circle cx="167" cy="24" r="2" fill="#F0F0FF" fill-opacity="0.44"/>
<circle cx="145" cy="2" r="2" fill="#F0F0FF" fill-opacity="0.44"/>
<circle cx="178" cy="2" r="2" fill="#F0F0FF" fill-opacity="0.44"/>
<circle cx="145" cy="24" r="2" fill="#F0F0FF" fill-opacity="0.44"/>
<circle cx="178" cy="24" r="2" fill="#F0F0FF" fill-opacity="0.44"/>
<circle cx="156" cy="2" r="2" fill="#F0F0FF" fill-opacity="0.44"/>
<circle cx="189" cy="2" r="2" fill="#F0F0FF" fill-opacity="0.44"/>
<circle cx="156" cy="24" r="2" fill="#F0F0FF" fill-opacity="0.44"/>
<circle cx="189" cy="24" r="2" fill="#F0F0FF" fill-opacity="0.44"/>
<circle cx="156" cy="13" r="2" fill="#F0F0FF" fill-opacity="0.44"/>
<circle cx="189" cy="13" r="2" fill="#F0F0FF" fill-opacity="0.44"/>
<circle cx="156" cy="35" r="2" fill="#F0F0FF" fill-opacity="0.44"/>
<circle cx="189" cy="35" r="2" fill="#F0F0FF" fill-opacity="0.44"/>
<circle cx="145" cy="13" r="2" fill="#F0F0FF" fill-opacity="0.44"/>
<circle cx="178" cy="13" r="2" fill="#F0F0FF" fill-opacity="0.44"/>
<circle cx="145" cy="35" r="2" fill="#F0F0FF" fill-opacity="0.44"/>
<circle cx="178" cy="35" r="2" fill="#F0F0FF" fill-opacity="0.44"/>
<circle cx="134" cy="13" r="2" fill="#F0F0FF" fill-opacity="0.44"/>
<circle cx="167" cy="13" r="2" fill="#F0F0FF" fill-opacity="0.44"/>
<circle cx="134" cy="35" r="2" fill="#F0F0FF" fill-opacity="0.44"/>
<circle cx="167" cy="35" r="2" fill="#F0F0FF" fill-opacity="0.44"/>
<circle cx="398" cy="46" r="2" fill="#F0F0FF" fill-opacity="0.44"/>
<circle cx="398" cy="90" r="2" fill="#F0F0FF" fill-opacity="0.44"/>
<circle cx="398" cy="68" r="2" fill="#F0F0FF" fill-opacity="0.44"/>
<circle cx="409" cy="46" r="2" fill="#F0F0FF" fill-opacity="0.44"/>
<circle cx="409" cy="90" r="2" fill="#F0F0FF" fill-opacity="0.44"/>
<circle cx="409" cy="68" r="2" fill="#F0F0FF" fill-opacity="0.44"/>
<circle cx="409" cy="57" r="2" fill="#F0F0FF" fill-opacity="0.44"/>
<circle cx="409" cy="79" r="2" fill="#F0F0FF" fill-opacity="0.44"/>
<circle cx="398" cy="57" r="2" fill="#F0F0FF" fill-opacity="0.44"/>
<circle cx="398" cy="79" r="2" fill="#F0F0FF" fill-opacity="0.44"/>
<circle cx="398" cy="2" r="2" fill="#F0F0FF" fill-opacity="0.44"/>
<circle cx="398" cy="24" r="2" fill="#F0F0FF" fill-opacity="0.44"/>
<circle cx="409" cy="2" r="2" fill="#F0F0FF" fill-opacity="0.44"/>
<circle cx="409" cy="24" r="2" fill="#F0F0FF" fill-opacity="0.44"/>
<circle cx="409" cy="13" r="2" fill="#F0F0FF" fill-opacity="0.44"/>
<circle cx="409" cy="35" r="2" fill="#F0F0FF" fill-opacity="0.44"/>
<circle cx="398" cy="13" r="2" fill="#F0F0FF" fill-opacity="0.44"/>
<circle cx="398" cy="35" r="2" fill="#F0F0FF" fill-opacity="0.44"/>
<circle cx="200" cy="46" r="2" fill="#F0F0FF" fill-opacity="0.44"/>
<circle cx="200" cy="90" r="2" fill="#F0F0FF" fill-opacity="0.44"/>
<circle cx="233" cy="46" r="2" fill="#F0F0FF" fill-opacity="0.44"/>
<circle cx="233" cy="90" r="2" fill="#F0F0FF" fill-opacity="0.44"/>
<circle cx="200" cy="68" r="2" fill="#F0F0FF" fill-opacity="0.44"/>
<circle cx="233" cy="68" r="2" fill="#F0F0FF" fill-opacity="0.44"/>
<circle cx="211" cy="46" r="2" fill="#F0F0FF" fill-opacity="0.44"/>
<circle cx="211" cy="90" r="2" fill="#F0F0FF" fill-opacity="0.44"/>
<circle cx="244" cy="46" r="2" fill="#F0F0FF" fill-opacity="0.44"/>
<circle cx="244" cy="90" r="2" fill="#F0F0FF" fill-opacity="0.44"/>
<circle cx="211" cy="68" r="2" fill="#F0F0FF" fill-opacity="0.44"/>
<circle cx="244" cy="68" r="2" fill="#F0F0FF" fill-opacity="0.44"/>
<circle cx="222" cy="46" r="2" fill="#F0F0FF" fill-opacity="0.44"/>
<circle cx="222" cy="90" r="2" fill="#F0F0FF" fill-opacity="0.44"/>
<circle cx="255" cy="46" r="2" fill="#F0F0FF" fill-opacity="0.44"/>
<circle cx="255" cy="90" r="2" fill="#F0F0FF" fill-opacity="0.44"/>
<circle cx="222" cy="68" r="2" fill="#F0F0FF" fill-opacity="0.44"/>
<circle cx="255" cy="68" r="2" fill="#F0F0FF" fill-opacity="0.44"/>
<circle cx="222" cy="57" r="2" fill="#F0F0FF" fill-opacity="0.44"/>
<circle cx="255" cy="57" r="2" fill="#F0F0FF" fill-opacity="0.44"/>
<circle cx="222" cy="79" r="2" fill="#F0F0FF" fill-opacity="0.44"/>
<circle cx="255" cy="79" r="2" fill="#F0F0FF" fill-opacity="0.44"/>
<circle cx="211" cy="57" r="2" fill="#F0F0FF" fill-opacity="0.44"/>
<circle cx="244" cy="57" r="2" fill="#F0F0FF" fill-opacity="0.44"/>
<circle cx="211" cy="79" r="2" fill="#F0F0FF" fill-opacity="0.44"/>
<circle cx="244" cy="79" r="2" fill="#F0F0FF" fill-opacity="0.44"/>
<circle cx="200" cy="57" r="2" fill="#F0F0FF" fill-opacity="0.44"/>
<circle cx="233" cy="57" r="2" fill="#F0F0FF" fill-opacity="0.44"/>
<circle cx="200" cy="79" r="2" fill="#F0F0FF" fill-opacity="0.44"/>
<circle cx="233" cy="79" r="2" fill="#F0F0FF" fill-opacity="0.44"/>
<circle cx="200" cy="2" r="2" fill="#F0F0FF" fill-opacity="0.44"/>
<circle cx="233" cy="2" r="2" fill="#F0F0FF" fill-opacity="0.44"/>
<circle cx="200" cy="24" r="2" fill="#F0F0FF" fill-opacity="0.44"/>
<circle cx="233" cy="24" r="2" fill="#F0F0FF" fill-opacity="0.44"/>
<circle cx="211" cy="2" r="2" fill="#F0F0FF" fill-opacity="0.44"/>
<circle cx="244" cy="2" r="2" fill="#F0F0FF" fill-opacity="0.44"/>
<circle cx="211" cy="24" r="2" fill="#F0F0FF" fill-opacity="0.44"/>
<circle cx="244" cy="24" r="2" fill="#F0F0FF" fill-opacity="0.44"/>
<circle cx="222" cy="2" r="2" fill="#F0F0FF" fill-opacity="0.44"/>
<circle cx="255" cy="2" r="2" fill="#F0F0FF" fill-opacity="0.44"/>
<circle cx="222" cy="24" r="2" fill="#F0F0FF" fill-opacity="0.44"/>
<circle cx="255" cy="24" r="2" fill="#F0F0FF" fill-opacity="0.44"/>
<circle cx="222" cy="13" r="2" fill="#F0F0FF" fill-opacity="0.44"/>
<circle cx="255" cy="13" r="2" fill="#F0F0FF" fill-opacity="0.44"/>
<circle cx="222" cy="35" r="2" fill="#F0F0FF" fill-opacity="0.44"/>
<circle cx="255" cy="35" r="2" fill="#F0F0FF" fill-opacity="0.44"/>
<circle cx="211" cy="13" r="2" fill="#F0F0FF" fill-opacity="0.44"/>
<circle cx="244" cy="13" r="2" fill="#F0F0FF" fill-opacity="0.44"/>
<circle cx="211" cy="35" r="2" fill="#F0F0FF" fill-opacity="0.44"/>
<circle cx="244" cy="35" r="2" fill="#F0F0FF" fill-opacity="0.44"/>
<circle cx="200" cy="13" r="2" fill="#F0F0FF" fill-opacity="0.44"/>
<circle cx="233" cy="13" r="2" fill="#F0F0FF" fill-opacity="0.44"/>
<circle cx="200" cy="35" r="2" fill="#F0F0FF" fill-opacity="0.44"/>
<circle cx="233" cy="35" r="2" fill="#F0F0FF" fill-opacity="0.44"/>
</svg>
