<svg width="51" height="50" viewBox="0 0 51 50" fill="none" xmlns="http://www.w3.org/2000/svg">
<path d="M25.9863 8.61347e-08C21.0418 8.61347e-08 16.2083 1.46622 12.0971 4.21326C7.98585 6.96029 4.78154 10.8648 2.88935 15.4329C0.99716 20.0011 0.502077 25.0277 1.46671 29.8772C2.43134 34.7268 4.81236 39.1813 8.30867 42.6777C11.805 46.174 16.2596 48.555 21.1091 49.5196C25.9586 50.4843 30.9853 49.9892 35.5534 48.097C40.1216 46.2048 44.026 43.0005 46.7731 38.8892C49.5201 34.778 50.9863 29.9445 50.9863 25C50.9866 21.7169 50.3401 18.4658 49.0839 15.4326C47.8276 12.3993 45.9861 9.64324 43.6646 7.32172C41.3431 5.0002 38.587 3.15873 35.5537 1.90246C32.5205 0.646186 29.2695 -0.000272447 25.9863 8.61347e-08ZM33.9351 37.8812C33.8415 38.1145 33.6992 38.3251 33.5175 38.4989C33.3359 38.6727 33.1192 38.8057 32.882 38.8889C32.6448 38.9721 32.3925 39.0037 32.1421 38.9814C31.8917 38.9592 31.6489 38.8836 31.4301 38.7599L24.6434 33.4865L20.2876 37.505C20.1866 37.5797 20.0683 37.6277 19.9438 37.6447C19.8193 37.6617 19.6925 37.6472 19.5751 37.6023L20.4101 30.1312L20.4369 30.1524L20.4539 30.0049C20.4539 30.0049 32.6664 18.8861 33.1639 18.4124C33.6676 17.9399 33.5014 17.8374 33.5014 17.8374C33.5301 17.2611 32.5976 17.8374 32.5976 17.8374L16.4163 28.2475L9.67761 25.9525C9.67761 25.9525 8.64261 25.5812 8.54511 24.765C8.44261 23.955 9.71134 23.515 9.71134 23.515L36.5038 12.8712C36.5038 12.8712 38.7063 11.8899 38.7063 13.515L33.9351 37.8812Z" fill="#43B8EB"/>
</svg>
