<svg width="53" height="53" viewBox="0 0 53 53" fill="none" xmlns="http://www.w3.org/2000/svg">
<path d="M26.8874 0.745117C12.4946 0.745117 0.826172 12.4114 0.826172 26.8042C0.826172 41.1971 12.4946 52.8655 26.8874 52.8655C41.2791 52.8655 52.9476 41.1971 52.9476 26.8042C52.9476 12.4114 41.2791 0.745117 26.8874 0.745117ZM25.6674 14.5119C25.8796 14.3177 26.0285 14.2907 26.7644 14.3133C27.1481 14.3268 27.7125 14.3719 28.0194 14.408C29.5724 14.6021 30.8274 14.9768 32.2043 15.6494C33.5587 16.3131 34.4253 16.9405 35.572 18.0827C36.6465 19.1616 37.2424 19.9788 37.8744 21.2473C38.7547 23.0169 39.2558 25.1206 39.3417 27.4366C39.3733 28.2264 39.3507 28.4026 39.1701 28.6283C38.827 29.0662 38.073 28.994 37.8158 28.5019C37.7345 28.3393 37.712 28.1996 37.6849 27.5675C37.6397 26.5969 37.572 25.9694 37.4366 25.22C36.9039 22.2812 35.4954 19.9336 33.2472 18.2498C31.3736 16.8413 29.437 16.1552 26.9 16.0061C26.0422 15.9565 25.8933 15.9249 25.6992 15.7759C25.3378 15.4915 25.3197 14.8234 25.6674 14.5119ZM31.0485 20.3264C30.1411 19.7848 28.8003 19.3829 27.5769 19.2837C27.1344 19.2475 26.8907 19.1573 26.7237 18.9631C26.4664 18.6696 26.4393 18.2724 26.656 17.9429C26.8908 17.5772 27.2518 17.5185 28.3309 17.6811C31.0712 18.0828 33.1929 19.356 34.5833 21.4235C35.3644 22.5882 35.8519 23.9562 36.0189 25.4232C36.0776 25.9605 36.0776 26.9401 36.0144 27.1027C35.9557 27.2561 35.766 27.4639 35.6036 27.5495C35.4276 27.6398 35.0529 27.6308 34.8452 27.5225C34.4975 27.3464 34.3937 27.0665 34.3937 26.3081C34.3937 25.1388 34.0912 23.9064 33.5676 22.9493C32.9717 21.8569 32.1049 20.954 31.0485 20.3264ZM32.5744 26.3442C32.308 26.5879 31.816 26.597 31.518 26.3668C31.3013 26.2043 31.2336 26.0327 31.1839 25.5678C31.1253 24.9493 31.0169 24.5159 30.8319 24.1141C30.4346 23.2609 29.7348 22.8185 28.552 22.674C27.9967 22.6063 27.8296 22.5431 27.6492 22.3309C27.3196 21.9381 27.446 21.3016 27.9019 21.0668C28.0736 20.981 28.1458 20.972 28.525 20.9947C28.7597 21.0082 29.1074 21.0487 29.2925 21.0895C30.1818 21.279 30.8635 21.6176 31.4458 22.1639C32.1952 22.8727 32.6061 23.7304 32.7866 24.9629C32.9084 25.7663 32.8588 26.0823 32.5744 26.3442ZM39.3189 38.2036C38.9848 39.0659 37.6848 40.682 36.7772 41.3727C35.9557 41.9956 35.3734 42.2349 34.6059 42.2711C33.9738 42.3026 33.712 42.2485 32.9039 41.9145C26.5656 39.3006 21.505 35.4003 17.4872 30.0415C15.388 27.2426 13.7898 24.3399 12.6973 21.3288C12.0608 19.5727 12.0292 18.8098 12.5528 17.9113C12.7787 17.5321 13.7402 16.5931 14.4399 16.0694C15.6047 15.2027 16.1419 14.8821 16.5708 14.7918C16.8641 14.7286 17.3742 14.7783 17.6994 14.8956C17.8574 14.9497 18.1011 15.0761 18.2411 15.1665C19.0988 15.7353 21.487 18.7916 22.2679 20.3174C22.7148 21.1887 22.8638 21.8342 22.7239 22.3128C22.5793 22.8275 22.3401 23.0983 21.2701 23.9606C20.8413 24.3082 20.4395 24.6648 20.3764 24.7597C20.2138 24.9944 20.0829 25.4549 20.0829 25.7799C20.0875 26.5338 20.575 27.9017 21.2161 28.9536C21.7126 29.7707 22.6019 30.8179 23.4823 31.6216C24.516 32.5698 25.428 33.2151 26.4572 33.7254C27.7799 34.3844 28.588 34.5515 29.1795 34.2761C29.3284 34.2084 29.4864 34.1181 29.5362 34.0775C29.5813 34.0369 29.9289 33.6125 30.3081 33.1432C31.0394 32.222 31.2065 32.0732 31.7075 31.9016C32.3441 31.6849 32.9943 31.7435 33.6487 32.0776C34.1453 32.335 35.2288 33.0077 35.9286 33.4952C36.8494 34.1408 38.8177 35.748 39.0842 36.0685C39.5537 36.6462 39.6349 37.3864 39.3189 38.2036Z" fill="#6B6BE4"/>
</svg>
